<?xml version="1.0" encoding="UTF-8"?>
<!DOCTYPE svg PUBLIC "-//W3C//DTD SVG 1.1//EN" "http://www.w3.org/Graphics/SVG/1.1/DTD/svg11.dtd">
<!-- Creator: CorelDRAW X7 -->
<svg xmlns="http://www.w3.org/2000/svg" xml:space="preserve" width="4.06587in" height="4.06587in" version="1.1" style="shape-rendering:geometricPrecision; text-rendering:geometricPrecision; image-rendering:optimizeQuality; fill-rule:evenodd; clip-rule:evenodd"
viewBox="0 0 4066 4066"
 xmlns:xlink="http://www.w3.org/1999/xlink">
 <defs>
  <style type="text/css">
   <![CDATA[
    .fil0 {fill:#DE0C25}
    .fil1 {fill:#E8D171}
   ]]>
  </style>
 </defs>
 <g id="Layer_x0020_1">
  <metadata id="CorelCorpID_0Corel-Layer"/>
  <g id="_950233216">
   <circle class="fil0" cx="2033" cy="2033" r="1132"/>
   <path class="fil0" d="M2033 779c692,0 1254,561 1254,1254 0,692 -562,1254 -1254,1254 -692,0 -1254,-562 -1254,-1254 0,-693 562,-1254 1254,-1254zm0 56c662,0 1198,536 1198,1198 0,662 -536,1198 -1198,1198 -662,0 -1198,-536 -1198,-1198 0,-662 536,-1198 1198,-1198z"/>
   <path class="fil0" d="M2033 3c1121,0 2029,909 2029,2030 0,1121 -908,2029 -2029,2029 -1121,0 -2030,-908 -2030,-2029 0,-1121 909,-2030 2030,-2030zm0 75c1079,0 1955,875 1955,1955 0,1079 -876,1955 -1955,1955 -1080,0 -1955,-876 -1955,-1955 0,-1080 875,-1955 1955,-1955z"/>
   <path class="fil1" d="M1735 2142c20,-14 37,-28 51,-40l-27 107 89 -57 -56 119c107,-32 240,-100 299,-164 32,-36 70,-85 82,-147 18,-92 -10,-130 -48,-175 98,29 108,182 30,298 -56,84 -142,138 -242,196 -159,90 -370,284 -449,425 23,-16 101,-59 107,-64 54,-78 169,-221 274,-297 -48,79 -104,145 -150,281 24,-25 117,-212 187,-261 13,20 -2,61 -8,81 1,0 6,0 29,-10 -3,243 -45,216 -58,238 -2,3 -2,10 -3,17 98,-45 116,-10 150,-11 24,0 24,-8 32,-12 11,-6 15,2 22,2 -4,-9 -10,-16 -19,-19 -33,-8 -79,1 -98,-14 -20,-16 23,-187 26,-224 16,4 21,9 41,11 -21,-159 20,-119 177,-226 187,-128 288,-374 94,-532 -80,-65 -125,-60 -144,-169 -14,-85 -10,-117 75,-77 51,24 45,37 56,57 53,-26 28,-64 -10,-166 -20,-55 -55,-104 -122,-118 -151,-32 -230,121 -207,259 33,204 104,153 -27,392 -46,84 -117,229 -153,300zm-497 -50c-8,31 -18,85 -19,118 -1,24 -4,25 18,29 62,13 249,25 267,15 15,-13 15,-189 13,-217 -31,-2 -104,45 -131,60 -56,31 -80,-15 -125,-24 -18,-4 -18,1 -23,19zm1310 261c58,23 161,61 209,72 22,6 22,0 24,-15 1,-12 0,-24 -1,-30 -2,-16 -12,-15 -28,-22 -20,-8 -50,-15 -89,-30 -34,-13 -32,-15 1,-40 21,-16 71,-47 99,-67 26,-18 24,-26 22,-67 -1,-26 -3,-23 -28,-10 -50,26 -153,97 -186,121 -25,17 -60,32 -60,55 0,19 6,20 37,33zm167 -574c-20,-12 -41,-29 -61,-40 -21,-12 -30,-19 -44,0 -14,19 -17,30 -27,42 -12,16 -21,31 -31,-1 -9,-32 -11,-80 -21,-112 -9,-25 -11,-31 -38,-31 -17,0 -29,3 -33,10 -4,8 -1,20 0,31 4,24 15,61 21,89 15,49 18,134 65,144 40,9 63,-42 88,-77 17,-24 24,-26 55,-1 25,21 55,45 75,65 13,12 42,8 47,-5 3,-7 3,-15 1,-36 -5,-49 -12,-134 -18,-181 -3,-18 -4,-63 -21,-61 -7,1 -24,1 -35,1 -9,0 -10,10 -9,24 3,42 8,112 9,125 3,25 -6,24 -23,14zm-195 292c26,1 76,-5 125,-9 52,-4 98,-8 127,-11 20,-1 26,-2 28,-20 2,-15 0,-30 -1,-38 -3,-15 -8,-18 -24,-19 -20,-2 -76,5 -135,10 -47,5 -87,10 -118,13 -25,3 -38,4 -37,39 2,30 6,34 35,35zm-1137 -522c10,7 19,15 28,23 36,29 124,108 173,139 21,14 34,20 35,3 2,-44 1,-55 -12,-66 -23,-22 -57,-37 -83,-62 -24,-23 -22,-32 9,-38 40,-7 79,-10 111,-18 35,-8 41,-1 40,-48 0,-27 -15,-22 -41,-20 -61,5 -174,23 -242,34 -38,6 -57,19 -18,53zm-30 266c21,14 16,23 1,38 -36,39 -118,85 -79,122 47,43 106,-68 157,-86 50,-18 113,43 135,20 49,-50 -82,-83 -144,-126 -16,-11 -96,-73 -111,-71 -13,3 -22,14 -29,27 -13,21 -17,34 6,45 19,10 55,25 64,31zm85 330c-26,12 -73,36 -40,43 15,1 30,3 45,4 15,1 17,0 17,-16 0,-11 0,-16 0,-27 0,-16 -9,-11 -22,-4zm-133 6c20,11 57,34 29,38 -12,0 -24,0 -36,0 -13,0 -14,-1 -13,-13 1,-10 1,-13 2,-23 1,-13 7,-8 18,-2zm735 149c1,27 4,62 3,80 1,0 12,-12 27,-20 44,83 171,231 159,258 -11,26 -31,28 -37,39 -1,3 -1,11 -2,18 96,-50 115,-16 150,-18 24,-2 23,-10 31,-15 11,-6 15,2 22,2 -5,-9 -10,-16 -20,-18 -33,-6 -75,-1 -95,-16 -21,-15 -129,-197 -152,-265 12,0 17,0 37,1 -13,-17 -38,-50 -57,-87l-66 41zm-275 -166c-56,70 -113,144 -156,223 43,-48 86,-96 128,-144 10,-26 19,-52 28,-79zm48 57c-91,70 -175,148 -250,238 65,-56 136,-105 201,-148 17,-30 32,-60 49,-90zm180 15c-184,74 -382,179 -489,330 32,-22 49,-38 79,-54 127,-97 260,-192 410,-276zm-208 207c-90,97 -173,205 -244,330 30,-17 59,-34 89,-51 44,-97 99,-189 155,-279zm395 -1146c10,7 18,17 24,28 5,8 2,17 -9,12 -13,-7 -23,-13 -30,-26 -4,-8 -3,-27 15,-14z"/>
   <path class="fil1" d="M2035 1001c21,0 37,16 37,37 0,20 -16,37 -37,37 -21,0 -37,-17 -37,-37 0,-21 16,-37 37,-37zm-1019 893c2,-20 21,-34 42,-32 20,3 34,22 32,42 -3,20 -22,35 -42,32 -21,-3 -35,-21 -32,-42zm1153 -885c21,3 35,22 32,42 -2,21 -21,35 -42,32 -20,-2 -34,-21 -32,-42 3,-20 22,-34 42,-32zm811 1144c3,-20 22,-35 42,-32 20,3 35,21 32,42 -3,20 -21,34 -42,32 -20,-3 -34,-22 -32,-42zm-1069 821c20,2 34,21 32,42 -3,20 -22,34 -42,32 -21,-3 -35,-22 -32,-42 2,-21 21,-35 42,-32zm-869 -1212c5,-19 26,-31 46,-26 20,5 31,26 26,46 -5,20 -26,31 -46,26 -20,-5 -31,-26 -26,-46zm1259 -726c20,5 32,25 26,45 -5,20 -25,32 -45,27 -20,-6 -32,-26 -27,-46 6,-20 26,-32 46,-26zm655 1239c5,-20 26,-31 46,-26 19,5 31,26 26,46 -5,19 -26,31 -46,26 -20,-5 -31,-26 -26,-46zm-1168 674c20,6 32,26 27,46 -6,20 -26,32 -46,26 -20,-5 -32,-25 -26,-45 5,-20 25,-32 45,-27zm-703 -1314c8,-19 30,-28 49,-20 19,8 28,30 20,49 -8,19 -30,28 -49,20 -19,-8 -28,-30 -20,-49zm1343 -556c19,8 28,30 21,49 -8,19 -30,28 -49,20 -19,-8 -28,-30 -20,-49 8,-19 29,-28 48,-20zm488 1314c8,-19 29,-28 48,-20 20,8 29,30 21,49 -8,19 -30,28 -49,20 -19,-8 -28,-30 -20,-49zm-1246 516c19,8 28,30 20,49 -8,19 -29,28 -48,20 -19,-8 -28,-29 -21,-48 8,-19 30,-29 49,-21zm-525 -1394c10,-18 33,-24 51,-14 17,10 24,33 13,51 -10,18 -33,24 -51,13 -17,-10 -24,-33 -13,-50zm1404 -377c18,11 24,33 14,51 -11,18 -34,24 -51,14 -18,-10 -24,-33 -14,-51 10,-18 33,-24 51,-14zm312 1367c10,-18 33,-24 51,-13 17,10 23,33 13,51 -10,17 -33,23 -51,13 -18,-10 -24,-33 -13,-51zm-1303 349c18,11 24,33 14,51 -10,18 -33,24 -51,14 -18,-11 -24,-33 -14,-51 11,-18 33,-24 51,-14zm-339 -1451c13,-17 36,-20 53,-7 16,12 19,36 7,52 -13,16 -36,20 -53,7 -16,-13 -19,-36 -7,-52zm1442 -190c16,13 19,36 7,52 -13,17 -36,20 -53,7 -16,-12 -19,-36 -7,-52 13,-16 36,-20 53,-7zm130 1396c13,-16 36,-19 53,-7 16,13 19,36 6,52 -12,17 -35,20 -52,7 -16,-12 -19,-36 -7,-52zm-1336 176c16,12 19,36 6,52 -12,17 -35,20 -52,7 -16,-12 -19,-36 -7,-52 13,-17 36,-20 53,-7zm-147 -1483c15,-15 38,-15 53,0 14,14 14,38 0,52 -15,15 -38,15 -53,0 -14,-14 -14,-38 0,-52zm1454 0c14,14 14,38 0,52 -15,15 -38,15 -53,0 -14,-14 -14,-38 0,-52 15,-15 38,-15 53,0zm-53 1401c15,-15 38,-15 53,0 14,14 14,38 0,52 -15,15 -38,15 -53,0 -14,-14 -14,-38 0,-52zm-1348 0c14,14 14,38 0,52 -15,15 -38,15 -53,0 -14,-14 -14,-38 0,-52 15,-15 38,-15 53,0zm48 -1490c17,-13 40,-9 52,7 13,16 10,40 -6,52 -17,13 -40,10 -53,-7 -12,-16 -9,-39 7,-52zm1441 190c13,16 10,39 -6,52 -17,13 -40,9 -53,-7 -12,-16 -9,-40 7,-52 17,-13 40,-10 52,7zm-235 1382c17,-13 40,-10 53,7 12,16 9,40 -7,52 -17,13 -40,10 -53,-7 -12,-16 -9,-40 7,-52zm-1336 -176c12,16 9,40 -7,52 -17,13 -40,10 -53,-7 -12,-16 -9,-39 7,-52 17,-12 40,-9 53,7zm242 -1471c18,-10 41,-4 51,14 10,18 4,41 -14,51 -18,10 -40,4 -51,-14 -10,-18 -4,-40 14,-51zm1404 377c10,17 4,40 -13,50 -18,11 -41,5 -51,-13 -11,-18 -5,-41 13,-51 18,-10 41,-4 51,14zm-413 1339c17,-10 40,-4 51,14 10,18 4,40 -14,51 -18,10 -41,4 -51,-14 -10,-18 -4,-40 14,-51zm-1303 -349c11,18 4,41 -13,51 -18,10 -41,4 -51,-13 -11,-18 -4,-41 13,-51 18,-11 41,-5 51,13zm433 -1426c19,-8 40,1 48,20 8,19 -1,41 -20,49 -19,8 -41,-1 -49,-20 -7,-19 2,-41 21,-49zm1343 556c8,19 -2,41 -21,49 -19,8 -40,-1 -48,-20 -8,-19 1,-41 20,-49 19,-8 41,1 49,20zm-585 1274c19,-8 41,2 49,21 7,19 -2,40 -21,48 -19,8 -40,-1 -48,-20 -8,-19 1,-41 20,-49zm-1246 -516c8,19 -1,41 -20,49 -19,8 -41,-1 -49,-20 -8,-19 1,-41 20,-49 19,-8 41,1 49,20zm615 -1357c20,-6 40,6 46,26 5,20 -7,40 -27,46 -20,5 -40,-7 -45,-27 -6,-20 6,-40 26,-45zm1259 726c5,20 -7,41 -26,46 -20,5 -41,-6 -46,-26 -5,-20 6,-41 26,-46 20,-5 41,7 46,26zm-746 1187c20,-5 40,7 45,27 6,20 -6,40 -26,45 -20,6 -40,-6 -46,-26 -5,-20 7,-40 27,-46zm-1168 -674c5,20 -6,41 -26,46 -20,5 -41,-7 -46,-26 -5,-20 6,-41 26,-46 20,-5 41,6 46,26zm787 -1266c20,-2 39,12 42,32 2,21 -12,40 -32,42 -21,3 -40,-11 -42,-32 -3,-20 11,-39 32,-42zm1153 885c3,21 -12,39 -32,42 -20,3 -39,-12 -42,-32 -2,-20 12,-39 32,-42 21,-2 39,12 42,32zm-895 1080c21,-3 40,11 42,32 3,20 -11,39 -32,42 -20,2 -39,-12 -42,-32 -2,-21 12,-40 32,-42zm904 -945c0,20 -17,37 -37,37 -21,0 -38,-17 -38,-37 0,-21 17,-38 38,-38 20,0 37,17 37,38zm-1028 953c21,0 37,17 37,37 0,21 -16,37 -37,37 -21,0 -37,-16 -37,-37 0,-20 16,-37 37,-37zm-953 -953c0,20 -17,37 -38,37 -20,0 -37,-17 -37,-37 0,-21 17,-38 37,-38 21,0 38,17 38,38zm8 124c2,20 -12,39 -32,42 -21,2 -40,-12 -42,-32 -3,-21 11,-39 32,-42 20,-3 39,12 42,32z"/>
   <path class="fil0" d="M1076 542l116 -62c45,-24 82,-35 111,-33 29,2 51,17 66,45 10,18 14,37 11,55 -2,18 -10,33 -24,46l1 2c24,-6 44,-5 60,3 16,8 29,22 40,42 16,30 17,60 4,89 -13,30 -40,55 -79,76l-129 69 -177 -332zm158 79l27 -14c13,-7 21,-15 25,-24 5,-9 4,-19 -2,-29 -10,-19 -29,-20 -57,-5l-25 13 32 59zm35 66l37 70 31 -17c28,-15 36,-34 24,-58 -6,-11 -15,-18 -25,-19 -11,-2 -23,0 -38,8l-29 16zm434 -248l37 -149 108 -22 -77 249 28 144 -100 20 -28 -141 -166 -204 108 -21 90 124zm314 198l22 -376 101 6 -17 293 145 9 -5 82 -246 -14zm358 43l96 -364 99 26 -96 364 -99 -26zm498 88c-11,21 -26,36 -45,46 -19,10 -41,14 -65,12 -25,-2 -50,-10 -76,-25 -22,-12 -40,-23 -53,-35 -13,-11 -25,-25 -37,-41l44 -80c12,18 26,35 41,50 16,15 31,27 47,35 13,7 24,10 32,9 9,-1 15,-5 19,-12 3,-5 4,-9 3,-14 0,-5 -3,-10 -6,-17 -4,-6 -14,-22 -32,-45 -16,-22 -27,-40 -33,-55 -5,-15 -8,-30 -6,-45 1,-15 6,-30 15,-46 17,-30 41,-48 73,-53 31,-5 66,4 104,25 34,19 65,46 92,81l-66 54c-23,-32 -45,-53 -67,-66 -12,-6 -22,-9 -29,-7 -8,1 -13,4 -16,10 -4,7 -4,15 0,23 4,9 17,28 39,58 21,29 33,53 36,74 3,21 -1,42 -14,64z"/>
   <path class="fil0" d="M2536 3731l-230 44 -9 -49 67 -98c20,-30 32,-50 38,-61 5,-11 9,-21 11,-30 2,-9 2,-18 0,-27 -2,-13 -8,-22 -16,-27 -9,-5 -19,-7 -31,-4 -13,2 -25,7 -36,16 -11,8 -22,18 -33,32l-46 -38c14,-17 25,-29 35,-37 10,-7 20,-14 32,-19 12,-6 26,-10 42,-13 20,-4 39,-4 56,1 17,4 31,13 43,24 11,12 18,27 21,44 3,15 3,30 0,44 -2,14 -8,30 -17,46 -8,16 -24,39 -47,70l-35 48 1 3 143 -27 11 58zm-931 15l-67 -19 51 -186 9 -30 11 -34c-15,9 -25,14 -30,16l-45 20 -22 -51 127 -53 56 15 -90 322zm234 -245c-15,-1 -27,2 -36,11 -9,9 -15,23 -17,42 -2,16 0,29 6,39 7,11 17,17 33,18 14,2 27,-1 38,-9 11,-8 17,-19 19,-31 2,-18 -1,-33 -9,-47 -8,-13 -19,-21 -34,-23zm109 104c-7,65 -27,112 -58,141 -31,29 -75,40 -131,34 -19,-2 -34,-5 -44,-9l7 -56c12,5 25,8 39,9 23,3 43,2 59,-3 16,-5 29,-15 39,-28 9,-14 16,-34 21,-60l-3 0c-11,13 -22,22 -34,26 -12,5 -27,6 -44,4 -29,-3 -51,-15 -65,-36 -15,-20 -20,-47 -16,-80 4,-36 17,-62 40,-81 23,-18 51,-25 86,-21 25,3 45,11 62,25 17,13 30,32 37,55 7,23 9,49 5,80zm84 190l115 -279 -164 6 -2 -59 239 -9 2 44 -116 294 -74 3z"/>
  </g>
 </g>
</svg>
