<?xml version="1.0" encoding="UTF-8"?>
<!DOCTYPE svg PUBLIC "-//W3C//DTD SVG 1.1//EN" "http://www.w3.org/Graphics/SVG/1.1/DTD/svg11.dtd">
<!-- Creator: CorelDRAW X7 -->
<svg xmlns="http://www.w3.org/2000/svg" xml:space="preserve" width="3.44059in" height="4.06587in" version="1.1" style="shape-rendering:geometricPrecision; text-rendering:geometricPrecision; image-rendering:optimizeQuality; fill-rule:evenodd; clip-rule:evenodd"
viewBox="0 0 3441 4066"
 xmlns:xlink="http://www.w3.org/1999/xlink">
 <defs>
  <style type="text/css">
   <![CDATA[
    .fil4 {fill:#373435}
    .fil3 {fill:#201E1E}
    .fil2 {fill:#25AA54}
    .fil1 {fill:#7081BD}
    .fil0 {fill:#9599C7}
    .fil5 {fill:#201E1E;fill-rule:nonzero}
   ]]>
  </style>
 </defs>
 <g id="Слой_x0020_1">
  <metadata id="CorelCorpID_0Corel-Layer"/>
  <g id="_859303376">
   <rect class="fil0" x="152" y="152" width="3137" height="421"/>
   <g>
    <g>
     <path class="fil1" d="M152 616l0 1704c-1,189 -3,415 84,587 25,52 57,99 92,144 17,21 35,42 53,61 157,166 387,281 604,381l0 -189c-40,8 -89,23 -157,53 -37,14 -48,-41 -87,-58 -30,-14 -94,-3 -101,-19 85,-19 222,-42 345,-50l0 -282 1438 0c26,-1 53,-3 79,-5 221,-17 472,-45 693,-62 74,-169 95,-356 94,-551l0 -1714 -3138 0 1 0zm1106 347c69,8 133,20 200,42l35 11 -36 8c-37,8 -75,18 -113,25 55,20 118,26 176,30l3 0 2 1c6,5 11,11 14,17 26,45 -15,110 -49,151 23,-6 44,-12 68,-22l24 -10 -11 23c-33,72 -65,107 -127,145 16,2 33,4 47,3l19 -2 -9 16c-24,41 -51,75 -88,101 4,0 10,0 15,-1l37 -3 -30 21c-85,57 -229,72 -321,26 -54,-27 -79,-88 -16,-122 42,-22 111,-28 134,-75 23,-47 1,-87 -34,-120 -33,-30 -72,-58 -109,-84 -43,-29 -90,-59 -136,-83 -8,14 -13,28 -17,45l-4 13 -12 -8c-81,-57 -141,-116 -201,-194 -35,-47 -69,-94 -106,-140 -12,-14 -35,-24 -53,-18 -19,6 -26,26 -27,46 -1,27 6,52 15,76 37,100 117,186 190,248 -53,-37 -155,-113 -215,-270 -6,-16 -12,-30 -26,-42 -12,-9 -25,-14 -39,-3 -20,16 -21,51 -19,74 5,48 25,99 46,142 69,111 183,191 260,249 -80,-43 -188,-118 -276,-239 -11,-13 -62,-70 -85,-49 -45,43 66,186 93,221 39,50 115,120 189,157 -61,-16 -138,-81 -203,-144 -5,-4 -30,-25 -38,-19 -11,8 -2,39 3,49 34,77 101,166 185,190l25 8 -23 10c-66,31 -117,79 -19,110l22 7 -19 11c-22,12 -50,37 -44,65 8,42 79,44 111,41l15 -2 -6 15c-6,16 -14,43 -3,60 19,30 105,21 134,19l9 -1 1 9c15,113 124,99 206,68l15 -6 -1 15c-8,96 59,111 140,101l38 -5 -31 22c-44,32 -98,51 -142,83 -36,26 -58,43 -81,76 30,-1 66,-7 98,-19 -21,15 -48,30 -73,39 -42,15 -91,44 -121,77 39,3 81,-4 119,-13 32,-7 64,-13 95,-23 -22,12 -59,33 -86,46 -38,18 -73,37 -105,65 33,4 61,3 95,-3 20,-4 44,-9 60,-13 -17,11 -35,23 -52,34 -46,31 -92,63 -139,93 -33,20 -82,34 -118,46l-4 2 -4 -2c-41,-24 -105,-49 -152,-53 -27,-1 -47,15 -68,28 5,3 9,7 13,10 1,1 2,1 3,2 7,6 13,14 20,20 7,6 15,10 22,13 14,5 27,11 43,11 -20,6 -33,11 -47,19 -24,15 -19,32 -26,54 24,-3 47,-3 71,-3 21,1 49,2 69,-4 47,-13 64,-25 87,-67 8,32 7,55 37,74 33,23 71,29 85,69 35,-9 72,-25 56,-67 -13,-33 -76,-58 -103,-77l-14 -10 15 -7c102,-52 203,-109 305,-164l8 -4 5 8c14,24 25,46 42,67 14,-29 19,-64 23,-95l2 -19 70 58c19,-57 30,-93 72,-138 13,-15 34,-32 46,-49 13,-18 22,-39 35,-59l13 -20 4 24c22,118 -25,217 -93,308 40,-6 74,-21 106,-46 14,-11 25,-23 38,-36 -2,21 -7,41 -13,61 -4,8 -7,17 -11,25 -23,43 -67,78 -108,108 18,1 37,0 52,-3l22 -5 -11 19c-5,10 -12,20 -18,31 -15,24 -33,47 -51,68 57,-18 100,-41 152,-81l28 -21 -13 33c-9,24 -19,46 -31,68 28,-13 53,-29 77,-48l27 -22 -12 33c-14,39 -32,72 -53,106 25,-9 50,-19 76,-28l14 -5 -2 15c-5,62 3,78 40,117 31,-26 47,-63 39,-104l-4 -23 19 14c17,11 44,24 68,29 -20,-29 -40,-62 -48,-96l-8 -28 23 18c21,16 42,22 67,27 -10,-16 -18,-32 -26,-49l-18 -41 33 30c47,41 91,56 147,51 -36,-21 -75,-41 -99,-78l-21 -33 34 19c36,20 76,22 115,14 -64,-44 -140,-93 -146,-176l-1 -16 15 6c5,2 9,5 15,8 24,13 46,31 69,47 25,15 48,25 75,32 -18,-45 -47,-81 -80,-118 -25,-27 -63,-66 -71,-103 -11,-57 13,-112 68,-135l14 -5 -1 15c-3,74 17,117 66,171 24,27 48,52 66,83 17,-15 27,-35 38,-55l6 -10 8 7c22,18 32,49 41,75 7,22 15,46 26,67 12,-35 35,-67 69,-82l4 -2 5 3c21,13 42,20 65,8l8 -4 5 7c5,7 11,14 17,21 20,20 43,36 67,51 29,20 58,37 87,58l8 6 -7 8c-10,13 -21,24 -33,36 -6,7 -14,14 -19,22 -2,4 -4,8 -5,13 0,3 -1,5 0,7 0,8 3,16 4,24 1,7 1,14 0,21 18,-2 35,-3 55,-5 13,-2 25,-5 37,-11 18,-9 35,-33 48,-48l1 -1 68 -29 4 3c11,7 22,13 35,15 34,7 76,-5 109,-15 40,-13 80,-25 122,-28 -8,-17 -25,-27 -45,-32 -19,-5 -47,-3 -70,-2 -20,0 -34,-1 -52,-1 51,-8 94,-14 139,-29 -29,-21 -100,-35 -127,-31 -29,4 -56,12 -83,26 -19,9 -37,21 -56,30 -6,3 -11,5 -17,6 -29,9 -63,2 -87,-17 -26,-20 -39,-37 -60,-62 -19,-25 -42,-38 -70,-53l-37 -18 41 0c22,0 53,-11 73,-28 -24,-3 -51,-9 -75,-17 -28,-10 -43,-22 -62,-40 44,12 110,30 167,7 -35,-14 -80,-35 -102,-54l-18 -16 24 -1c14,-1 39,-8 55,-18 -34,-16 -67,-33 -99,-51 -32,-18 -67,-39 -95,-62l-16 -14 21 -3c6,-1 15,-4 22,-7 -25,-16 -50,-34 -70,-55l-20 -21 28 5c50,8 195,27 124,-66l-27 -36 39 22c37,19 111,43 141,-1 26,-38 -11,-89 -36,-116l-31 -31 41 15c59,23 135,39 198,24 17,-4 64,-20 61,-45 -1,-11 -14,-18 -23,-22l-66 -25 70 6c31,3 68,2 98,-8 14,-4 34,-14 37,-30 5,-26 -40,-51 -59,-61l-37 -18 41 0c91,-2 127,-37 48,-105l-10 -9 12 -7c60,-34 117,-81 152,-142 23,-39 39,-92 24,-137 -4,-1 -12,3 -14,6 -11,15 -36,8 -53,20 -50,54 -79,96 -150,137 62,-55 119,-116 166,-184 7,-10 14,-21 20,-32 15,-26 24,-56 27,-86 2,-17 0,-55 -25,-48 -3,2 -11,16 -13,19 -20,35 -46,65 -75,93 19,-33 27,-50 36,-77 14,-45 22,-96 18,-142 -2,-19 -10,-62 -32,-70 -26,-9 -35,29 -42,46 -61,153 -137,221 -203,255 80,-61 139,-147 170,-215 14,-32 28,-66 19,-102 -7,-25 -20,-53 -43,-52 -18,0 -36,15 -44,30 -35,64 -75,124 -123,179 -36,42 -75,78 -115,115l-3 3 -24 0c-22,1 -24,4 -42,19 -38,32 -78,66 -114,102 -25,25 -46,46 -64,78 -13,22 -8,51 5,72 21,32 59,47 97,51l9 1 -1 9c-2,25 7,34 31,40l16 4 -10 12c-66,82 -153,120 -258,105 -101,-14 -219,-83 -291,-156l-23 -22 32 6c21,4 43,4 64,2 -30,-22 -61,-53 -72,-84 -14,-37 -10,-68 -31,-107l-12 -20 22 6c12,3 19,5 29,4 -8,-64 -32,-115 -80,-162l-17 -17 58 0c-18,-30 -34,-45 -75,-50l-15 -1 36 -60 -114 12 -2 0c-64,-20 -293,-68 -324,20 28,14 55,8 84,4 47,-8 93,-17 155,13 -50,8 -107,18 -183,7 -27,-3 -48,-8 -65,-17 -42,-3 -90,-5 -129,13 -8,3 -15,7 -22,12l1 3zm-203 2562c31,14 62,27 91,41 192,88 387,182 557,309 209,-144 440,-246 671,-350l-1319 0zm1414 -43c200,-92 423,-202 570,-363 68,-73 118,-153 155,-237 -40,12 -139,32 -176,43 -25,8 -56,33 -81,40 -155,48 -315,55 -468,78l0 188c153,-15 318,-41 468,-57 -156,60 -320,96 -468,116l0 192z"/>
     <path class="fil2" d="M152 2054c0,88 0,177 0,266 -1,189 -3,415 84,587 25,52 57,99 92,144 17,21 35,42 53,61 157,166 387,281 604,381l0 -189c-40,8 -89,23 -157,53 -37,14 -48,-41 -87,-58 -30,-14 -94,-3 -101,-19 85,-19 222,-42 345,-50l0 -282 1438 0c26,-1 53,-3 79,-5 221,-17 472,-45 693,-62 74,-169 95,-356 94,-551 0,-95 0,-191 0,-287 -17,2 -40,-1 -70,1 -12,0 13,46 -3,47 -9,0 -21,-3 -49,-3 -29,0 11,-42 -35,-35 -12,1 -23,3 -34,6 -10,3 15,26 6,36 -4,5 -42,1 -47,2 -15,2 -5,-29 -18,-35 -18,-7 -44,-10 -63,18 -30,0 -62,5 -92,8 -58,74 -131,131 -182,221 -61,30 -114,80 -176,126 10,12 21,22 36,34 24,19 58,26 87,17 6,-1 11,-3 17,-6 19,-9 37,-21 56,-30 27,-14 54,-22 83,-26 27,-4 98,10 127,31 -45,15 -88,21 -139,29 18,0 32,1 52,1 23,-1 51,-3 70,2 20,5 37,15 45,32 -42,3 -82,15 -122,28 -33,10 -75,22 -109,15 -13,-2 -24,-8 -35,-15l-4 -3 -68 29 -1 1c-13,15 -30,39 -48,48 -12,6 -24,9 -37,11 -20,2 -37,3 -55,5 1,-7 1,-14 0,-21 -1,-8 -4,-16 -4,-24 -1,-2 0,-4 0,-7 1,-5 3,-9 5,-13 5,-8 13,-15 19,-22 12,-12 23,-23 33,-36l7 -8 -8 -6c-18,-13 -35,-24 -53,-36 -17,8 -36,16 -50,23 -34,18 -84,-4 -108,17 -11,9 -5,30 -14,40 -15,16 -35,-60 -41,-35 -8,32 -32,31 -48,39 -18,8 -47,17 -65,26 -56,-20 -101,-11 -143,-8 -42,3 -75,8 -111,15 21,17 46,30 69,44 -47,4 -86,-6 -125,-34l-12 3c-7,1 -14,1 -21,1 7,13 14,26 22,39 -25,-5 -46,-11 -67,-27l-23 -18 8 28c8,34 28,67 48,96 -24,-5 -51,-18 -68,-29l-19 -14 4 23c8,41 -8,78 -39,104 -37,-39 -45,-55 -40,-117l2 -15 -14 5c-26,9 -51,19 -76,28 21,-34 39,-67 53,-106l12 -33 -27 22c-24,19 -49,35 -77,48 12,-22 22,-44 31,-68l13 -33 -28 21c-26,20 -49,36 -74,49 -7,5 -14,10 -22,14 -10,6 -21,21 -34,21 -12,0 -38,8 -64,0 -34,-10 -70,-39 -87,-47 -21,-10 -42,24 -62,34 -20,9 0,48 -24,49 -53,-27 -90,-117 -128,-104 -23,-9 -66,24 -95,17 1,1 1,2 2,3 16,42 -21,58 -56,67 -14,-40 -52,-46 -85,-69 -30,-19 -29,-42 -37,-74 -23,42 -40,54 -87,67 -20,6 -48,5 -69,4 -24,0 -47,0 -71,3 7,-22 2,-39 26,-54 14,-8 27,-13 47,-19 -16,0 -29,-6 -43,-11 -7,-3 -15,-7 -22,-13 -7,-6 -13,-14 -20,-20 -1,-1 -2,-1 -3,-2 -4,-3 -8,-7 -13,-10 21,-13 41,-29 68,-28 47,4 111,29 152,53l4 2 4 -2c36,-12 85,-26 118,-46 18,-12 36,-24 54,-35 -16,-62 -109,-114 -208,-130 -28,-4 -46,17 -72,17 -26,1 -70,-22 -98,-30 -6,-49 -36,-58 -47,-55 -31,-43 -63,-90 -138,-67 -56,-78 -120,-102 -190,-80zm761 503c-1,-4 -2,-8 -3,-12 -2,-14 30,-35 49,-58 20,-22 25,-46 19,-59 -2,-3 -6,-5 -11,-6 -43,24 -87,48 -131,70l-15 7 14 10c19,13 54,29 78,48zm142 968c31,14 62,27 91,41 192,88 387,182 557,309 209,-144 440,-246 671,-350l-1319 0zm1414 -43c200,-92 423,-202 570,-363 68,-73 118,-153 155,-237 -40,12 -139,32 -176,43 -25,8 -56,33 -81,40 -155,48 -315,55 -468,78l0 188c153,-15 318,-41 468,-57 -156,60 -320,96 -468,116l0 192z"/>
     <path class="fil3" d="M2149 2790c-2,23 -24,30 -47,32 -11,2 -23,-5 -36,-6 -16,-1 -45,4 -38,-8 12,-19 42,-60 53,-61 20,-2 28,61 37,44 14,-26 3,-51 -18,-71 -18,-17 -1,-13 16,-42 8,-13 25,-18 25,-37 -1,-22 -12,-48 -4,-69 5,-15 29,-6 31,-22 4,-20 -37,-64 -17,-62 21,1 28,25 44,37 13,9 35,2 43,16 8,12 -17,26 -18,46 -1,26 41,68 24,72 -34,10 -46,-31 -61,-54 -13,-19 -24,-25 -25,-10 -2,71 -1,135 -8,195l-1 0zm1058 -746l1 49 16 0 0 -29 1 -20 -18 0zm-118 0l2 54 16 1 0 -35 48 -1 0 26 16 0 1 -45 -83 0zm-359 719c-7,-36 4,-58 0,-93 -3,-16 26,-41 39,-54 43,0 86,0 128,0 -25,16 -48,38 -77,48 -22,9 -47,4 -71,6 1,36 2,71 3,107 -8,-5 -14,-9 -22,-14l0 0zm559 -403c-113,8 -239,41 -317,74 -29,12 -44,-28 -85,-36 -20,-4 -44,19 -66,23 -32,5 -63,5 -77,19 19,-8 40,-13 61,-16 27,-4 98,10 127,31 -45,15 -88,21 -139,29 18,0 32,1 52,1 23,-1 51,-3 70,2 20,5 37,15 45,32 -31,2 -61,10 -90,18 21,13 35,40 86,49 12,2 -37,-35 -39,-50 -1,-7 17,-6 17,-11 1,-5 33,17 45,18 17,2 27,-2 23,-5 -23,-19 -25,-28 -23,-36 7,-20 26,-18 43,-27 25,-11 9,-50 25,-55 81,-29 178,-43 243,-48l0 -13 -1 1zm-754 85c19,-13 26,-30 46,-43 39,-26 113,-61 183,-134 101,-8 156,-10 281,-13 3,-28 13,-44 27,-57 33,-30 79,-19 90,78 30,-1 26,-1 56,-2 -11,-68 -57,-104 -98,-106 -30,-2 -64,10 -94,48 -33,0 -91,16 -115,-8 -30,-29 -12,-80 -19,-121 -40,25 -71,63 -103,101 -58,26 -80,78 -89,123 -24,21 -55,20 -73,33 -41,28 -70,57 -105,87 4,5 8,9 13,14zm-85 1c-3,5 -8,9 -15,12 -20,9 -65,6 -82,15 -28,15 -53,16 -48,41 3,22 38,72 74,62 29,-10 -42,-43 -37,-73 2,-13 19,-4 38,-6 15,-2 35,-17 35,-7 0,18 1,57 -5,78 -3,13 -25,13 -30,22 -7,11 3,30 -3,44 -16,35 -46,35 -30,83l0 -1c9,23 8,-26 39,-23 13,2 29,7 46,13 7,3 17,15 25,18 17,6 1,-46 14,-47 13,0 45,54 50,45 10,-16 -16,-37 -32,-63 -3,-6 -43,-10 -48,-16 -4,-5 29,-16 26,-22 -23,-42 -42,-87 -35,-126 3,-17 28,-32 52,-27 -11,-7 -22,-14 -34,-22zm64 42c8,8 14,19 20,28l0 -1 7 -8 -8 -6c-6,-5 -13,-9 -19,-13zm463 -442l1 60c10,20 19,30 19,50l22 0c-3,-19 -11,-34 -25,-54l0 -36 48 0 0 30 16 0 1 -50 -82 0 0 0zm-805 787c-1,-43 -3,-58 -3,-131 0,-9 5,-10 15,-14 10,-5 24,-14 37,-15 21,-1 40,3 46,-10 6,-12 -10,-54 -11,-74 0,-19 14,-7 12,-26 -4,-60 -11,-112 11,-82 6,9 2,18 9,32 10,24 22,48 22,68 0,25 -21,7 -18,56 0,13 30,23 28,36 -2,14 -36,-5 -41,36 -1,9 20,17 47,19 19,2 -20,15 -45,13 -17,-2 -17,39 -30,34 -15,-5 -6,-31 -8,-48 -2,-13 -8,-24 -22,-22 -4,1 -28,3 -30,7 -8,18 -1,36 4,51 5,15 -11,23 -12,34 -1,9 15,22 20,33 61,-7 126,-13 189,-17l-2 -97 10 0 3 97c16,-1 32,-2 47,-2 -8,-27 -8,-52 30,-60 20,4 38,22 62,21 40,-2 73,-20 77,21 54,-3 102,-9 161,-11 32,-1 54,4 86,2 58,-3 139,-9 202,-17 2,-2 -21,-10 -35,-18 -20,-13 -33,-26 -27,-25 51,7 52,-5 52,-16 1,-21 22,-40 29,-46 18,-13 42,52 78,15 6,-5 4,-35 8,-42 16,-27 17,-72 28,-47 4,7 7,19 10,35 2,7 -5,39 -31,87 -9,16 -19,32 -30,46 38,-6 62,-10 94,-14l-2 5c-17,5 -40,10 -69,16 -105,18 -276,34 -311,37 -36,4 -63,13 -95,20 -25,5 -37,13 -64,19 -33,7 -80,8 -116,17 -9,3 -12,10 6,14 31,7 94,19 73,22 -83,9 -190,-4 -200,-20 -7,-12 33,-8 52,-21 24,-15 20,-37 -5,-33l0 0c-317,15 -614,64 -904,125l0 0c-1,0 -1,0 -2,0 -8,2 -17,4 -26,5l-60 0c31,-6 62,-12 92,-18 9,-18 27,-48 18,-48 -46,1 -116,-5 -171,-8 -21,-2 -53,-11 -71,-24 -26,-17 -57,-47 -71,-47 -10,0 -18,7 -27,6 -34,-3 12,-16 14,-30 2,-8 -9,-8 -44,-10 -22,-1 -36,-12 -52,-14 -11,-2 -16,17 -29,17 -14,0 -45,-1 -64,-1 -30,1 -30,-10 -31,-21 -1,-19 -8,-18 -36,-16 -13,1 -8,21 -13,33 -3,8 -20,2 -19,-10 1,-11 -21,-29 -23,-41 -1,-12 17,-19 23,-29 3,-5 6,5 13,9 6,5 16,4 18,-1 12,-20 -12,-66 10,-57 15,6 8,17 15,33 6,14 19,25 27,38 8,11 23,14 32,17 12,5 6,-39 11,-65 0,-4 12,6 14,10 8,19 -4,30 6,48 4,6 20,11 21,4 4,-37 0,-57 1,-95 0,-6 8,-15 10,-8 8,35 1,67 5,102 1,14 20,4 31,-5 3,-2 2,-17 3,-22 3,-31 1,-65 0,-99 0,-7 16,-10 16,-2l-1 -2c0,22 2,45 3,68 1,20 9,36 1,57 -4,10 -28,4 -28,15 0,7 11,6 22,9 7,1 15,12 27,16 21,6 35,-6 37,-22 2,-12 -6,-8 -10,-19 -4,-14 -5,-47 9,-46 4,0 3,23 9,43 6,20 17,35 18,36 7,6 13,-64 21,-39 3,10 7,19 10,27 5,9 -14,17 -17,26 -4,12 9,21 41,4 11,-5 -27,-73 -26,-75 4,-11 12,-21 17,-29 8,-15 9,-38 19,-36 18,3 1,73 14,98 9,16 17,1 30,-18 17,-24 39,-56 43,-55 10,5 -34,75 -25,87 21,25 68,-58 70,-50 2,5 1,28 -14,50 -14,23 -52,19 -38,47 2,4 30,3 54,-14 21,-15 38,-47 42,-45 19,6 -6,35 -16,55 -5,9 3,22 2,22 -11,8 -51,2 -127,9 -8,1 -10,19 -14,33 0,2 8,12 42,17 26,3 127,25 181,-2 22,-12 18,-53 18,-77 4,4 8,9 13,14 2,-2 5,-4 7,-6 1,17 -3,38 -10,54 -7,14 -31,58 -51,82 183,-37 361,-72 549,-95zm-376 8c-7,-5 15,-12 17,-26 3,-18 -15,-36 -4,-46 7,-7 12,28 24,36 9,7 22,-21 20,-28 -5,-12 -27,-12 -37,-26 -7,-9 0,-25 -5,-36 -8,-19 -27,-33 -37,-45 -2,-2 -4,-5 -6,-8 -8,-15 -14,-29 -17,-44l-6 -23c8,-4 16,20 32,44 34,53 101,115 111,103 8,-8 7,-17 2,-26 -5,-8 -23,-31 -37,-51 -8,-12 -18,-22 -26,-28 -3,-2 -5,-4 -7,-5 4,1 8,2 13,3 -8,-12 -14,-24 -20,-36 6,-4 16,-7 27,-10 40,31 80,41 129,37 -23,-13 -47,-26 -67,-43 15,1 29,3 43,9 22,8 37,39 56,60 14,15 26,21 15,21 -29,0 -43,-28 -68,-33 -11,-2 -25,18 -32,21 -23,11 -27,23 -23,28 3,5 16,20 23,17 7,-3 16,-14 38,-21 27,-10 27,24 51,55 8,10 -11,13 -19,6 -14,-11 -28,-37 -39,-29 -12,9 -25,15 -22,35 4,43 51,52 35,66 -7,6 -12,10 -19,8 -32,-11 -34,-52 -42,-48 -14,5 -3,35 -14,47 -15,15 -40,12 -61,13 -12,1 -20,7 -28,2l0 1zm-1423 263c149,-99 376,-85 584,-71 -213,-37 -431,-64 -619,31 12,14 24,27 36,40l-1 0zm141 -731c-21,-40 -51,-53 -71,-61 -27,-10 -38,14 -64,4 14,-9 28,-24 34,-42 2,-8 -6,-21 -1,-27 11,-18 50,14 67,13 28,-2 40,-17 37,-27 36,-13 45,31 76,32 0,-21 13,-31 24,-27 15,6 31,30 46,28 23,-25 43,-18 67,3 50,16 113,17 160,52l-2 2c2,0 3,0 5,0 4,3 8,7 12,11 3,26 4,46 4,63 -19,12 -38,25 -57,37 -7,4 -15,8 -23,12 4,-24 -5,-60 -11,-102 -18,-30 -41,-22 -67,-29 -19,-5 -30,-9 -49,-23 -10,-7 -13,-17 -24,-21 -10,-3 -32,30 -52,36 -15,-3 -32,-18 -53,-22 -41,-7 -20,21 -30,20 -16,-2 -29,-28 -43,-29 -15,-1 -26,9 -36,19 30,25 42,32 50,79l1 -1zm382 88c-4,13 -8,26 -11,44 34,36 65,52 79,76 3,6 66,3 67,17 1,4 -60,-7 -60,13 2,31 3,77 20,101 6,8 -3,48 -31,60 -21,-1 -24,-20 -49,-22 -12,-1 -24,19 -35,20 -24,2 -35,-26 -69,-26 -44,1 -66,-12 -109,-15 -32,-2 -157,20 -207,15 -22,-2 -38,-11 -44,-16 -8,-5 -6,-9 -14,-10l-259 -3 -1 -7c68,-12 204,-1 232,-8 22,-5 -6,-19 10,-27 15,-8 37,-17 37,-28 0,-37 -58,-22 -78,-32 -21,-10 -17,-24 -11,-25 31,-8 56,4 74,-4 18,-8 -3,-57 22,-65 16,-5 22,2 38,-3 20,-6 15,-19 19,-25 2,-3 9,-9 15,-14 3,4 7,7 10,10 7,6 15,10 22,13 14,5 27,11 43,11 -20,6 -33,11 -47,19 -24,15 -19,32 -26,54 24,-3 47,-3 71,-3 21,1 49,2 69,-4 47,-13 64,-25 87,-67 8,32 7,55 37,74 33,23 71,29 85,69 35,-9 72,-25 56,-67 -13,-33 -76,-58 -103,-77l-14 -10 15 -7c20,-10 40,-21 60,-31zm-391 -6c-19,-4 -42,-6 -73,-5 21,-16 70,-15 98,-11 -8,5 -16,11 -25,16zm-338 -436c3,-1 6,-2 8,-2 14,-1 20,16 34,16 12,1 24,-8 36,-5 45,14 66,57 100,90 68,-17 137,38 169,97 -62,-63 -133,-90 -155,-54 2,34 5,51 -2,76 -17,-88 -45,-121 -68,-148 -31,-36 -62,-35 -84,-27 -24,9 -36,44 -30,67 4,17 12,34 28,44 7,5 23,10 37,3 13,-6 23,-24 21,-3 -4,40 23,49 47,81 8,9 24,39 31,49 8,9 25,2 31,13 16,30 24,108 16,127 -6,-34 -11,-74 -29,-90 -10,-11 -26,5 -36,-7 -8,-9 1,-25 -5,-41 -12,-29 -38,-60 -54,-77 -17,50 29,128 14,175 -2,8 -16,10 -29,13 -25,5 -29,-35 -50,-55 -12,-11 -24,1 -29,-14 -11,-30 -5,-59 3,-95 7,-27 19,-57 -4,-92 -5,-9 -11,-10 -16,-11l0 -94c6,-2 10,-14 15,-35l1 -1zm830 587c1,22 -1,40 0,59 0,2 11,3 11,2 1,-19 1,-38 0,-55 -1,-6 -11,-12 -11,-6z"/>
    </g>
    <path class="fil3" d="M1409 928c-99,-7 -129,6 -178,42 79,9 144,18 224,44 -64,14 -103,25 -146,31 52,23 86,34 210,43 39,31 13,102 -56,176 54,-11 72,-17 99,-29 -34,75 -66,109 -145,153 20,5 52,11 75,9 -21,38 -53,81 -107,111 18,4 29,4 44,3 -92,61 -233,65 -311,26 -53,-27 -66,-78 -15,-105 38,-20 113,-29 138,-80 25,-51 2,-95 -35,-130 -64,-61 -201,-145 -256,-174 -12,19 -18,35 -23,55 -162,-113 -203,-209 -306,-332 -14,-17 -35,-30 -64,-21 -23,6 -40,32 -30,90 -22,-42 -53,-50 -75,-33 -34,28 -32,114 25,227 -55,-65 -86,-63 -99,-50 -52,48 59,193 92,234 -60,-54 -70,-1 -51,40 34,77 103,170 192,197 -94,43 -110,98 -18,128 -83,48 -62,137 73,125 -31,83 14,103 141,92 13,102 101,120 219,75 -9,98 55,123 151,111 -40,30 -102,55 -143,84 -40,29 -63,46 -92,92 17,3 42,0 55,-3 -57,17 -121,56 -152,99 51,8 112,-3 164,-16 -62,30 -105,50 -143,90 37,6 73,9 128,-3 -47,32 -109,74 -149,99 -26,17 -69,30 -115,45 -35,-19 -104,-50 -157,-53 -39,-2 -60,27 -90,38 9,3 23,12 29,17 15,11 21,31 60,41 -57,20 -38,54 -56,83 59,-13 121,1 159,-10 44,-13 63,-21 80,-51 7,36 18,44 36,57 32,21 73,28 83,73 73,-16 86,-47 72,-83 -14,-36 -86,-67 -107,-82 102,-52 200,-108 306,-164 17,29 28,53 54,79 19,-34 25,-76 29,-112l68 55c16,-50 32,-86 47,-110 24,-37 48,-51 74,-87 12,-16 18,-34 35,-59 22,125 -32,225 -106,319 48,-3 100,-19 152,-66 -17,69 -43,100 -144,172 25,5 57,5 80,0 -23,40 -36,61 -90,123 73,-20 123,-42 188,-92 -13,33 -25,62 -48,94 48,-21 81,-41 108,-63 -17,49 -40,83 -68,128 34,-12 69,-25 103,-37 -7,74 11,90 49,131 40,-30 57,-73 49,-119 29,20 70,33 94,33 -25,-33 -50,-72 -60,-110 27,21 54,27 94,31 -18,-22 -30,-45 -38,-65 59,54 114,62 181,51 -42,-28 -92,-47 -119,-90 42,24 90,24 144,10 -70,-48 -154,-96 -160,-181 55,22 89,77 178,89 -38,-114 -143,-171 -156,-235 -11,-57 16,-105 62,-123 -4,154 92,176 139,270 23,-16 34,-38 50,-65 35,29 39,105 77,158 5,-26 22,-76 69,-97 30,19 53,20 75,8 38,54 100,79 173,132 -35,41 -53,48 -60,74 -5,20 12,36 0,67 53,-12 70,0 110,-20 20,-9 38,-35 51,-50l60 -25c76,55 174,-25 285,-26 -5,-27 -27,-49 -75,-55 7,-2 32,-6 52,-15 -20,-27 -108,-51 -147,-45 -87,13 -114,50 -158,63 -34,10 -65,-6 -78,-15 -69,-56 -44,-72 -132,-117 35,0 77,-22 92,-45 -24,-2 -82,-11 -125,-33 66,20 114,16 159,-10 -37,-15 -97,-41 -119,-60 30,-2 63,-19 73,-30 -53,-24 -154,-76 -206,-119 11,-2 29,-7 41,-15 -25,-14 -59,-37 -84,-62 160,27 177,-24 133,-82 136,73 222,-23 116,-132 223,82 329,-29 243,-62 143,13 201,-59 81,-117 106,-1 135,-52 55,-122 146,-81 207,-208 180,-291 -4,-12 -25,-4 -31,4 -8,11 -23,0 -43,15 18,-23 32,-44 43,-63 22,-39 27,-78 28,-90 3,-26 -4,-67 -38,-59 -11,3 -20,36 -44,62 42,-122 25,-224 -15,-238 -13,-4 -30,-1 -44,23 -17,-128 -87,-97 -110,-56 -85,151 -162,224 -237,291l-21 0c-21,1 -24,2 -40,15 -54,46 -91,78 -121,108 -25,25 -46,44 -66,81 -26,46 5,126 109,138 -3,27 7,43 38,50 -188,232 -468,16 -534,-51 31,6 66,1 98,1 -37,-19 -81,-61 -95,-96 -12,-34 -7,-66 -32,-108 16,4 24,7 42,3 -6,-63 -26,-122 -83,-177l51 0c-28,-49 -45,-64 -91,-69l38 -64 -131 15c-74,-24 -303,-69 -337,25l0 1zm-151 35c69,8 133,20 200,42l35 11 -36 8c-37,8 -75,18 -113,25 55,20 118,26 176,30l3 0 2 1c6,5 11,11 14,17 26,45 -15,110 -49,151 23,-6 44,-12 68,-22l24 -10 -11 23c-33,72 -65,107 -127,145 16,2 33,4 47,3l19 -2 -9 16c-24,41 -51,75 -88,101 4,0 10,0 15,-1l37 -3 -30 21c-85,57 -229,72 -321,26 -54,-27 -79,-88 -16,-122 42,-22 111,-28 134,-75 23,-47 1,-87 -34,-120 -33,-30 -72,-58 -109,-84 -43,-29 -90,-59 -136,-83 -8,14 -13,28 -17,45l-4 13 -12 -8c-81,-57 -141,-116 -201,-194 -35,-47 -69,-94 -106,-140 -12,-14 -35,-24 -53,-18 -19,6 -26,26 -27,46 -1,27 6,52 15,76 37,100 117,186 190,248 -53,-37 -155,-113 -215,-270 -6,-16 -12,-30 -26,-42 -12,-9 -25,-14 -39,-3 -20,16 -21,51 -19,74 5,48 25,99 46,142 69,111 183,191 260,249 -80,-43 -188,-118 -276,-239 -11,-13 -62,-70 -85,-49 -45,43 66,186 93,221 39,50 115,120 189,157 -61,-16 -138,-81 -203,-144 -5,-4 -30,-25 -38,-19 -11,8 -2,39 3,49 34,77 101,166 185,190l25 8 -23 10c-66,31 -117,79 -19,110l22 7 -19 11c-22,12 -50,37 -44,65 8,42 79,44 111,41l15 -2 -6 15c-6,16 -14,43 -3,60 19,30 105,21 134,19l9 -1 1 9c15,113 124,99 206,68l15 -6 -1 15c-8,96 59,111 140,101l38 -5 -31 22c-44,32 -98,51 -142,83 -36,26 -58,43 -81,76 30,-1 66,-7 98,-19 -21,15 -48,30 -73,39 -42,15 -91,44 -121,77 39,3 81,-4 119,-13 32,-7 64,-13 95,-23 -22,12 -59,33 -86,46 -38,18 -73,37 -105,65 33,4 61,3 95,-3 20,-4 44,-9 60,-13 -17,11 -35,23 -52,34 -46,31 -92,63 -139,93 -33,20 -82,34 -118,46l-4 2 -4 -2c-41,-24 -105,-49 -152,-53 -27,-1 -47,15 -68,28 5,3 9,7 13,10 1,1 2,1 3,2 7,6 13,14 20,20 7,6 15,10 22,13 14,5 27,11 43,11 -20,6 -33,11 -47,19 -24,15 -19,32 -26,54 24,-3 47,-3 71,-3 21,1 49,2 69,-4 47,-13 64,-25 87,-67 8,32 7,55 37,74 33,23 71,29 85,69 35,-9 72,-25 56,-67 -13,-33 -76,-58 -103,-77l-14 -10 15 -7c102,-52 203,-109 305,-164l8 -4 5 8c14,24 25,46 42,67 14,-29 19,-64 23,-95l2 -19 70 58c19,-57 30,-93 72,-138 13,-15 34,-32 46,-49 13,-18 22,-39 35,-59l13 -20 4 24c22,118 -25,217 -93,308 40,-6 74,-21 106,-46 14,-11 25,-23 38,-36 -2,21 -7,41 -13,61 -4,8 -7,17 -11,25 -23,43 -67,78 -108,108 18,1 37,0 52,-3l22 -5 -11 19c-5,10 -12,20 -18,31 -15,24 -33,47 -51,68 57,-18 100,-41 152,-81l28 -21 -13 33c-9,24 -19,46 -31,68 28,-13 53,-29 77,-48l27 -22 -12 33c-14,39 -32,72 -53,106 25,-9 50,-19 76,-28l14 -5 -2 15c-5,62 3,78 40,117 31,-26 47,-63 39,-104l-4 -23 19 14c17,11 44,24 68,29 -20,-29 -40,-62 -48,-96l-8 -28 23 18c21,16 42,22 67,27 -10,-16 -18,-32 -26,-49l-18 -41 33 30c47,41 91,56 147,51 -36,-21 -75,-41 -99,-78l-21 -33 34 19c36,20 76,22 115,14 -64,-44 -140,-93 -146,-176l-1 -16 15 6c5,2 9,5 15,8 24,13 46,31 69,47 25,15 48,25 75,32 -18,-45 -47,-81 -80,-118 -25,-27 -63,-66 -71,-103 -11,-57 13,-112 68,-135l14 -5 -1 15c-3,74 17,117 66,171 24,27 48,52 66,83 17,-15 27,-35 38,-55l6 -10 8 7c22,18 32,49 41,75 7,22 15,46 26,67 12,-35 35,-67 69,-82l4 -2 5 3c21,13 42,20 65,8l8 -4 5 7c5,7 11,14 17,21 20,20 43,36 67,51 29,20 58,37 87,58l8 6 -7 8c-10,13 -21,24 -33,36 -6,7 -14,14 -19,22 -2,4 -4,8 -5,13 0,3 -1,5 0,7 0,8 3,16 4,24 1,7 1,14 0,21 18,-2 35,-3 55,-5 13,-2 25,-5 37,-11 18,-9 35,-33 48,-48l1 -1 68 -29 4 3c11,7 22,13 35,15 34,7 76,-5 109,-15 40,-13 80,-25 122,-28 -8,-17 -25,-27 -45,-32 -19,-5 -47,-3 -70,-2 -20,0 -34,-1 -52,-1 51,-8 94,-14 139,-29 -29,-21 -100,-35 -127,-31 -29,4 -56,12 -83,26 -19,9 -37,21 -56,30 -6,3 -11,5 -17,6 -29,9 -63,2 -87,-17 -26,-20 -39,-37 -60,-62 -19,-25 -42,-38 -70,-53l-37 -18 41 0c22,0 53,-11 73,-28 -24,-3 -51,-9 -75,-17 -28,-10 -43,-22 -62,-40 44,12 110,30 167,7 -35,-14 -80,-35 -102,-54l-18 -16 24 -1c14,-1 39,-8 55,-18 -34,-16 -67,-33 -99,-51 -32,-18 -67,-39 -95,-62l-16 -14 21 -3c6,-1 15,-4 22,-7 -25,-16 -50,-34 -70,-55l-20 -21 28 5c50,8 195,27 124,-66l-27 -36 39 22c37,19 111,43 141,-1 26,-38 -11,-89 -36,-116l-31 -31 41 15c59,23 135,39 198,24 17,-4 64,-20 61,-45 -1,-11 -14,-18 -23,-22l-66 -25 70 6c31,3 68,2 98,-8 14,-4 34,-14 37,-30 5,-26 -40,-51 -59,-61l-37 -18 41 0c91,-2 127,-37 48,-105l-10 -9 12 -7c60,-34 117,-81 152,-142 23,-39 39,-92 24,-137 -4,-1 -12,3 -14,6 -11,15 -36,8 -53,20 -50,54 -79,96 -150,137 62,-55 119,-116 166,-184 7,-10 14,-21 20,-32 15,-26 24,-56 27,-86 2,-17 0,-55 -25,-48 -3,2 -11,16 -13,19 -20,35 -46,65 -75,93 19,-33 27,-50 36,-77 14,-45 22,-96 18,-142 -2,-19 -10,-62 -32,-70 -26,-9 -35,29 -42,46 -61,153 -137,221 -203,255 80,-61 139,-147 170,-215 14,-32 28,-66 19,-102 -7,-25 -20,-53 -43,-52 -18,0 -36,15 -44,30 -35,64 -75,124 -123,179 -36,42 -75,78 -115,115l-3 3 -24 0c-22,1 -24,4 -42,19 -38,32 -78,66 -114,102 -25,25 -46,46 -64,78 -13,22 -8,51 5,72 21,32 59,47 97,51l9 1 -1 9c-2,25 7,34 31,40l16 4 -10 12c-66,82 -153,120 -258,105 -101,-14 -219,-83 -291,-156l-23 -22 32 6c21,4 43,4 64,2 -30,-22 -61,-53 -72,-84 -14,-37 -10,-68 -31,-107l-12 -20 22 6c12,3 19,5 29,4 -8,-64 -32,-115 -80,-162l-17 -17 58 0c-18,-30 -34,-45 -75,-50l-15 -1 36 -60 -114 12 -2 0c-64,-20 -293,-68 -324,20 28,14 55,8 84,4 47,-8 93,-17 155,13 -50,8 -107,18 -183,7 -27,-3 -48,-8 -65,-17 -42,-3 -90,-5 -129,13 -8,3 -15,7 -22,12l1 3z"/>
   </g>
   <path class="fil4" d="M1082 224l0 -42 43 0 0 42 -43 0zm-373 284l0 -216 -77 0 0 -44 206 0 0 44 -77 0 0 216 -52 0zm2219 -259l44 0 0 47 -10 42 -24 0 -10 -41 0 -48zm-88 0l44 0 0 47 -9 42 -26 0 -9 -41 0 -48zm-2283 0l45 0 0 47 -10 42 -25 0 -10 -41 0 -48zm-88 0l45 0 0 47 -10 42 -25 0 -10 -41 0 -48zm2276 259l0 -260 52 0 0 260 -52 0zm-356 0l0 -260 51 0 106 173 0 -173 49 0 0 260 -53 0 -105 -170 0 170 -48 0zm-359 -260l53 0 0 140c0,23 1,37 2,44 2,11 8,19 16,25 8,7 20,10 35,10 15,0 26,-3 33,-9 8,-6 12,-13 14,-22 1,-9 2,-24 2,-44l0 -144 52 0 0 137c0,31 -1,53 -4,66 -3,13 -8,24 -15,32 -8,9 -18,16 -31,21 -13,6 -29,8 -50,8 -24,0 -43,-3 -56,-9 -13,-5 -23,-13 -30,-22 -8,-9 -13,-18 -15,-29 -4,-15 -5,-36 -5,-66l0 -138 -1 0zm-364 0l104 0c20,0 36,1 46,2 10,2 19,6 26,11 8,6 15,13 21,22 5,9 7,19 7,30 0,13 -3,24 -9,34 -7,10 -16,18 -27,23 16,4 28,12 36,23 9,12 13,25 13,40 0,12 -2,23 -8,34 -6,12 -13,20 -23,27 -9,7 -21,11 -35,13 -9,1 -30,1 -63,1l-89 0 0 -260 1 0zm53 43l0 60 34 0c21,0 33,0 38,-1 9,-1 16,-4 21,-9 6,-5 8,-12 8,-20 0,-9 -2,-15 -6,-20 -5,-5 -11,-8 -20,-9 -5,-1 -20,-1 -45,-1l-30 0 0 0zm0 103l0 70 48 0c19,0 31,-1 36,-2 8,-1 14,-5 19,-10 5,-6 8,-13 8,-22 0,-8 -3,-15 -6,-20 -4,-6 -9,-9 -17,-12 -7,-2 -22,-4 -46,-4l-42 0 0 0zm-414 114l0 -260 111 0c28,0 48,2 60,7 13,5 23,13 31,25 8,12 11,26 11,41 0,19 -6,35 -17,48 -11,13 -28,21 -52,24 12,7 21,14 28,22 8,7 17,22 30,42l32 51 -63 0 -37 -57c-14,-20 -23,-33 -28,-38 -5,-6 -11,-9 -16,-11 -6,-2 -15,-3 -27,-3l-10 0 0 108 -53 0 0 1zm53 -150l39 0c25,0 41,-1 47,-3 6,-2 11,-6 14,-11 4,-5 5,-12 5,-20 0,-9 -2,-16 -7,-21 -4,-5 -11,-9 -19,-10 -5,-1 -17,-1 -39,-1l-40 0 0 66 0 0zm-394 150l0 -260 192 0 0 44 -140 0 0 58 130 0 0 43 -130 0 0 71 145 0 0 44 -197 0zm41 -284l0 -42 43 0 0 42 -43 0z"/>
   <path class="fil3" d="M0 0l3441 0 0 2335c0,333 -60,635 -290,887 -177,193 -437,315 -673,421 -260,118 -526,231 -755,404l-25 19 -24 -20c-173,-146 -387,-248 -591,-342 -307,-141 -661,-287 -874,-560 -42,-53 -79,-109 -110,-170 -98,-198 -99,-438 -99,-656l0 -2318 0 0zm39 39l3363 0 0 2296c0,415 -103,668 -280,860 -330,361 -955,467 -1423,821 -434,-367 -1122,-464 -1460,-896 -158,-203 -201,-381 -200,-801l0 -2280 0 0z"/>
   <path class="fil3" d="M2659 1216c24,34 25,67 -2,101 32,-13 44,-33 45,-54 0,-22 -17,-40 -44,-47l1 0z"/>
   <path class="fil3" d="M2017 1828c12,45 6,83 -20,117 31,-13 49,-44 50,-65 0,-23 -10,-42 -30,-52l0 0z"/>
   <path class="fil3" d="M2629 1074c17,34 18,67 -1,101 23,-13 32,-33 32,-54 1,-22 -12,-40 -31,-47z"/>
   <path class="fil3" d="M2488 1580c-41,36 -90,40 -127,30 13,12 38,20 61,18 25,-2 50,-15 66,-48l0 0z"/>
   <path class="fil3" d="M2622 1392c11,31 10,56 5,83 16,-7 26,-31 25,-45 -2,-15 -11,-34 -30,-39l0 1z"/>
   <path class="fil3" d="M2138 1734c10,103 -28,211 -106,276 89,-20 112,-97 121,-150 8,-50 8,-99 -15,-126z"/>
   <path class="fil3" d="M2557 1198c6,39 -8,55 -36,75 24,-2 43,-14 50,-34 4,-14 4,-29 -2,-42 -3,-8 -14,-11 -12,1l0 0z"/>
   <path class="fil3" d="M918 1280c-25,34 -23,67 4,101 -22,-9 -36,-26 -37,-47 0,-22 10,-43 33,-54z"/>
   <path class="fil3" d="M951 1447c-14,26 -7,47 18,64 -18,-2 -31,-10 -34,-23 -4,-14 1,-29 16,-41l0 0z"/>
   <path class="fil3" d="M769 1638c-19,1 -27,11 -29,31 -5,-11 -7,-24 -1,-31 7,-6 19,-5 30,0l0 0z"/>
   <path class="fil3" d="M877 1795c16,-30 19,-52 14,-79 10,6 15,23 16,34 10,-9 37,-26 57,-26 -34,23 -69,57 -88,72l1 -1z"/>
   <path class="fil3" d="M1340 1682c-24,91 -17,171 36,261 -38,-31 -74,-95 -74,-146 -1,-53 15,-88 38,-115l0 0z"/>
   <path class="fil3" d="M910 1139c-6,39 7,55 35,75 -24,-2 -42,-14 -49,-35 -5,-14 -4,-28 1,-41 3,-9 14,-12 12,1l1 0z"/>
   <path class="fil5" d="M2308 3017l0 6c-36,18 -64,36 -86,54 -22,18 -39,37 -51,56 -13,20 -22,43 -29,68 9,-7 16,-12 22,-16 13,-7 25,-12 38,-17 30,-9 55,-8 75,2 20,11 30,30 30,60 0,20 -6,41 -16,61 -11,21 -27,39 -46,55 -20,15 -42,26 -64,34 -25,7 -47,9 -68,5 -21,-3 -37,-14 -49,-30 -12,-17 -18,-37 -18,-61 0,-34 11,-70 32,-107 22,-37 53,-70 92,-101 40,-30 86,-53 138,-70l0 1zm-170 204c-2,22 -3,37 -3,47 0,21 3,41 8,59 5,18 12,29 21,35 7,3 15,4 23,1 10,-4 17,-10 25,-20 7,-10 10,-28 10,-53 0,-43 -6,-69 -19,-81 -8,-8 -20,-10 -34,-5 -8,3 -18,8 -31,17l0 0zm-825 -132l0 254c0,19 1,31 3,38 2,5 7,11 14,17 6,5 18,10 33,15l9 2 0 9 -211 -65 0 -8 11 3c17,5 30,8 37,7 7,-1 12,-4 15,-8 2,-5 4,-17 4,-36l0 -161c0,-14 -1,-24 -3,-28 -1,-4 -5,-8 -9,-12 -5,-4 -11,-7 -17,-9 -10,-3 -22,-4 -37,-4l-5 -9 147 -8 10 3 -1 0zm124 348l0 -7c33,-3 61,-10 83,-20 23,-10 41,-23 54,-40 14,-16 23,-35 28,-58 -12,4 -22,7 -31,8 -8,1 -17,2 -26,1 -31,-2 -56,-13 -76,-32 -21,-20 -31,-45 -31,-76 0,-21 6,-40 17,-57 11,-18 26,-30 47,-38 20,-8 41,-12 63,-10 23,2 45,9 66,22 21,12 38,29 50,51 13,22 19,45 19,72 0,34 -10,66 -31,96 -20,30 -50,53 -90,68 -40,16 -87,23 -142,20l0 0zm169 -145c3,-17 4,-33 4,-47 0,-29 -5,-56 -13,-82 -4,-15 -12,-26 -21,-33 -5,-4 -11,-6 -19,-6 -10,-2 -18,2 -23,8 -8,9 -12,26 -12,53 0,44 7,75 20,93 8,12 20,18 34,20 8,0 18,-2 30,-6l0 0zm204 -12l0 -8c23,-8 39,-14 47,-19 9,-6 16,-14 22,-24 6,-9 9,-19 9,-29 0,-12 -6,-23 -18,-32 -12,-8 -27,-11 -44,-9 -28,3 -51,17 -70,43l-11 -2c14,-28 32,-50 55,-66 22,-15 47,-24 73,-28 28,-3 51,2 69,13 18,12 27,27 27,45 0,12 -4,24 -12,36 -9,12 -22,23 -40,33 24,7 41,16 53,28 12,12 18,28 18,48 0,34 -15,64 -45,91 -31,27 -71,43 -122,48 -34,4 -58,2 -74,-5 -11,-6 -17,-13 -17,-23 0,-7 3,-14 10,-20 6,-5 14,-9 22,-10 7,-1 13,0 19,1 3,2 14,7 34,18 19,10 37,15 53,12 15,-1 27,-7 38,-18 10,-10 15,-22 15,-37 0,-22 -9,-41 -28,-57 -19,-16 -46,-25 -83,-29l0 0z"/>
   <path class="fil3" d="M1957 1697c0,-143 -113,-258 -252,-258 -140,0 -253,115 -253,258 0,142 113,258 253,258 139,0 252,-116 252,-258zm-256 -40l-77 48 -75 -34 -8 -71 97 -79 71 50 -8 86 0 0zm119 -176c46,26 83,68 104,117l-34 2 -72 -74 2 -45zm118 271c-8,36 -24,68 -45,96l-15 -12 34 -79 26 -5 0 0zm-182 184c-17,4 -34,6 -52,6 -22,0 -43,-3 -63,-9l-42 -67 53 -60 88 3 46 60 -31 67 1 0zm-249 -100c-20,-30 -34,-65 -40,-102l23 4 19 97 -2 2 0 -1zm-1 -279c31,-46 77,-81 131,-97l-5 49 -95 77 -31 -29 0 0zm-5 171l20 108 70 20 51 -56 -21 -84 -78 -35 -42 47 0 0zm250 74l47 61 67 -29 36 -82 -39 -58 -80 32 -30 76 -1 0zm27 -88l80 -32 21 -76 -66 -67 -92 32 -8 85 65 58 0 0z"/>
  </g>
 </g>
</svg>
