<?xml version="1.0" encoding="UTF-8"?>
<!DOCTYPE svg PUBLIC "-//W3C//DTD SVG 1.1//EN" "http://www.w3.org/Graphics/SVG/1.1/DTD/svg11.dtd">
<!-- Creator: CorelDRAW X7 -->
<svg xmlns="http://www.w3.org/2000/svg" xml:space="preserve" width="3.04709in" height="3.93701in" version="1.1" style="shape-rendering:geometricPrecision; text-rendering:geometricPrecision; image-rendering:optimizeQuality; fill-rule:evenodd; clip-rule:evenodd"
viewBox="0 0 3047 3937"
 xmlns:xlink="http://www.w3.org/1999/xlink">
 <defs>
  <style type="text/css">
   <![CDATA[
    .fil0 {fill:#059DCE}
    .fil1 {fill:white}
    .fil2 {fill:#059DCE;fill-rule:nonzero}
   ]]>
  </style>
 </defs>
 <g id="Layer_x0020_1">
  <metadata id="CorelCorpID_0Corel-Layer"/>
  <g id="_302308720">
   <path class="fil0" d="M0 0c508,0 1016,0 1524,0 507,0 1015,0 1523,0 0,760 0,1520 0,2280 0,753 -769,1367 -1523,1657 -755,-290 -1524,-904 -1524,-1657 0,-760 0,-1520 0,-2280z"/>
   <polygon class="fil1" points="258,617 2781,617 2781,166 2424,166 2424,383 1854,383 1854,166 1185,166 1185,383 615,383 615,166 258,166 "/>
   <path class="fil1" d="M384 872l178 -166 86 0 -236 219 252 267 -84 0 -196 -208 0 208 -64 0 0 -486 64 0 0 166zm2154 -105l0 132 189 0 0 62 -189 0 0 231 -63 0 0 -486 252 0 0 61 -189 0z"/>
   <path class="fil1" d="M1117 977l0 -183 -60 0 0 -42 7 0c14,0 34,-1 47,-8 10,-5 13,-16 14,-27l1 -6 48 0 0 266 59 0 0 45 -176 0 0 -45 60 0zm320 -76c-8,4 -15,7 -23,9 -12,4 -24,5 -37,5 -12,0 -24,-1 -35,-3 -12,-3 -23,-8 -33,-15 -13,-9 -23,-20 -29,-34 -8,-15 -10,-31 -10,-48 0,-15 3,-30 9,-44 6,-14 14,-25 24,-35 11,-10 23,-17 36,-22 14,-5 29,-8 43,-8 15,0 30,2 44,7 13,5 25,12 35,21 13,13 22,29 28,46 8,22 10,46 10,69 0,24 -3,48 -9,72 -6,20 -15,40 -29,57 -13,16 -29,29 -48,37 -22,10 -46,13 -70,13 -6,0 -13,0 -19,-1 -7,-1 -14,-2 -20,-4l-5 -1 0 -51 11 0 2 1c4,2 10,3 15,5 7,1 15,2 22,2 24,0 46,-6 63,-23 15,-15 22,-35 25,-55zm159 72l149 0 0 49 -218 0 0 -53 3 -2c13,-12 27,-23 41,-35 13,-12 26,-24 38,-36 17,-16 38,-37 50,-58 8,-12 13,-27 13,-42 0,-6 -1,-12 -4,-18 -2,-5 -5,-10 -9,-13 -5,-3 -10,-6 -16,-8 -7,-1 -13,-2 -20,-2 -8,0 -15,1 -23,2 -7,2 -15,4 -22,7 -6,2 -11,4 -17,7 -4,3 -9,5 -13,8l-2 1 -12 0 0 -54 4 -2c12,-5 27,-9 40,-12 16,-4 32,-6 48,-6 27,0 55,5 77,23 20,17 29,40 29,65 0,12 -2,23 -5,34 -3,11 -8,20 -13,29 -6,10 -13,19 -21,27 -8,9 -16,17 -25,25 -15,15 -30,29 -46,43 -9,7 -17,14 -26,21zm254 -212l0 63c2,0 5,0 8,0 5,0 9,0 14,0 15,0 30,0 45,3 13,3 25,9 36,16 12,8 21,18 28,31 7,14 9,31 9,46 0,15 -2,29 -8,43 -5,13 -13,24 -23,34 -11,10 -24,18 -37,23 -16,6 -33,8 -50,8 -16,0 -32,-2 -48,-5 -14,-3 -28,-7 -41,-13l-4 -2 0 -54 12 0 2 1c4,3 9,6 14,8 6,3 13,5 20,7 8,3 16,5 23,7 8,1 16,2 23,2 8,0 16,-1 24,-4 7,-2 13,-6 19,-12 4,-5 8,-11 11,-18 2,-8 3,-16 3,-25 0,-7 0,-15 -4,-22 -2,-6 -6,-10 -11,-14 -6,-5 -13,-8 -21,-10 -9,-2 -19,-2 -29,-2 -12,0 -24,0 -35,2 -10,1 -19,3 -29,5l-9 2 0 -169 196 0 0 49 -138 0zm-411 94c0,-2 0,-3 0,-4 0,-4 0,-7 0,-11 0,-15 -1,-32 -5,-46 -4,-9 -8,-19 -16,-26 -4,-5 -10,-9 -17,-11 -6,-3 -13,-3 -19,-3 -15,0 -28,4 -38,14 -11,13 -14,30 -14,46 0,9 1,19 4,27 4,8 9,13 15,18 5,3 10,6 16,7 7,1 15,2 22,2 9,0 19,-2 28,-4 8,-3 16,-6 24,-9z"/>
   <path class="fil1" d="M1524 1257c481,0 871,390 871,871 0,481 -390,872 -871,872 -482,0 -872,-391 -872,-872 0,-481 390,-871 872,-871z"/>
   <path class="fil2" d="M1107 1626l833 0 29 256 -35 0c-11,-80 -32,-135 -65,-165 -32,-30 -86,-45 -162,-45l-118 0 0 799c0,52 6,84 20,96 13,12 45,18 95,18l17 0 0 45c-55,-3 -96,-4 -124,-5 -28,-1 -50,-2 -66,-2 -19,0 -45,1 -76,2 -31,1 -74,2 -129,5l-1 -45 17 0c51,0 83,-6 96,-18 14,-13 21,-45 21,-96l0 -799 -120 0c-76,0 -130,15 -162,45 -32,30 -53,85 -64,165l-35 0 29 -256z"/>
   <g>
    <path class="fil1" d="M2192 3211l-97 -86 28 127 69 -41zm43 38l-100 59 21 95 -53 31 -76 -360 57 -34 279 241 -55 32 -73 -64z"/>
    <polygon class="fil1" points="1811,3210 1705,3244 1688,3192 1958,3105 1975,3157 1868,3192 1958,3471 1901,3490 "/>
    <path class="fil1" d="M1523 3560c-18,0 -36,-2 -54,-9 -15,-5 -28,-13 -40,-24 -13,-13 -21,-28 -26,-45 -6,-20 -8,-42 -8,-63l0 -215 60 0 0 215c0,12 1,25 3,37 2,9 5,18 10,26 5,8 13,13 21,17 11,5 23,6 34,6 12,0 23,-1 34,-6 9,-4 16,-9 22,-17 5,-8 8,-16 10,-26 2,-11 3,-24 3,-36l0 -216 60 0 0 216c0,20 -2,42 -7,61 -5,18 -14,33 -27,46 -12,11 -25,19 -40,25 -17,6 -37,8 -55,8z"/>
    <polygon class="fil1" points="1166,3197 1145,3270 1293,3311 1278,3364 1131,3323 1102,3427 1260,3471 1246,3524 1029,3464 1122,3128 1338,3188 1324,3241 "/>
    <polygon class="fil1" points="914,3067 820,3006 850,2960 1088,3115 1058,3162 964,3100 803,3346 753,3313 "/>
   </g>
  </g>
 </g>
</svg>
